<?xml version="1.0" encoding="utf-8" ?><svg xmlns="http://www.w3.org/2000/svg" xmlns:xlink="http://www.w3.org/1999/xlink" width="1024" height="1024" viewBox="0 0 1024 1024"><defs><linearGradient id="gradient_0" gradientUnits="userSpaceOnUse" x1="387.1037" y1="801.83289" x2="505.54398" y2="732.70337"><stop offset="0" stop-color="#E0B54B"/><stop offset="1" stop-color="#FFF58F"/></linearGradient></defs><path fill="url(#gradient_0)" d="M288.173 703.463C291.596 701.795 295.044 700.178 298.515 698.613C330.368 684.501 368.863 680.937 401.734 693.571C431.414 701.702 463.209 728.282 486.934 747.061C487.918 747.84 491.599 750.886 492.09 751.583C497.685 755.302 506.909 763.464 512.529 768.097C521.901 775.759 531.369 783.303 540.932 790.726C562.853 806.505 592.093 827.272 618.864 832.915C625.61 834.337 632.421 834.175 639.253 833.754C634.564 835.414 630.326 836.949 625.503 838.238C619.031 840.108 601.012 844.629 595.036 844.4C585.399 846.679 568.511 845.174 558.827 843.288C506.245 833.105 466.625 792.429 429.973 756.268C404.909 731.541 387.343 715.338 353.693 703.121C325.802 696.337 314.344 699.998 288.173 703.463Z"/><path fill="#B37D17" d="M540.932 790.726C562.853 806.505 592.093 827.272 618.864 832.915C625.61 834.337 632.421 834.175 639.253 833.754C634.564 835.414 630.326 836.949 625.503 838.238C619.031 840.108 601.012 844.629 595.036 844.4C585.399 846.679 568.511 845.174 558.827 843.288C559.219 842.744 559.376 842.498 559.615 841.853C561.247 837.438 562.698 835.232 565.625 831.613C548.887 827.114 524.527 814.052 509.91 805.017C510.38 804.896 516.524 803.923 515.982 804.359C521.589 799.839 526.716 796.085 533.572 793.658C535.918 792.828 539.283 791.823 540.932 790.726Z"/><path fill="#ECB848" d="M565.625 831.613C573.86 832.836 587.745 837.85 596.362 837.527C603.42 837.688 610.352 837.533 617.397 837.209C620.106 837.085 623.455 836.455 625.503 838.238C619.031 840.108 601.012 844.629 595.036 844.4C585.399 846.679 568.511 845.174 558.827 843.288C559.219 842.744 559.376 842.498 559.615 841.853C561.247 837.438 562.698 835.232 565.625 831.613Z"/><path fill="#C9912A" d="M596.362 837.527C603.42 837.688 610.352 837.533 617.397 837.209C620.106 837.085 623.455 836.455 625.503 838.238C619.031 840.108 601.012 844.629 595.036 844.4C595.152 843.779 595.048 844.173 595.493 843.267C600.851 843.663 606.611 841.13 612.159 840.83L612.193 839.602C609.911 837.385 601.129 840.187 596.362 837.527Z"/><defs><linearGradient id="gradient_1" gradientUnits="userSpaceOnUse" x1="487.53204" y1="803.90259" x2="489.08911" y2="745.34515"><stop offset="0" stop-color="#C58B1E"/><stop offset="1" stop-color="#ECC45A"/></linearGradient></defs><path fill="url(#gradient_1)" d="M509.91 805.017C486.955 790.031 466.583 771.903 446.819 752.983C443.912 750.2 440.272 746.949 437.835 743.796C443.335 746.907 447.148 752.509 451.985 755.883C460.585 761.881 466.941 766.971 474.609 774.188C480.028 771.187 485.173 768.926 491.122 767.187C494.915 766.078 501.416 766.446 503.614 763.911C503.247 759.959 494.749 757.046 492.09 751.583C497.685 755.302 506.909 763.464 512.529 768.097C521.901 775.759 531.369 783.303 540.932 790.726C539.283 791.823 535.918 792.828 533.572 793.658C526.716 796.085 521.589 799.839 515.982 804.359C516.524 803.923 510.38 804.896 509.91 805.017Z"/><defs><linearGradient id="gradient_2" gradientUnits="userSpaceOnUse" x1="318.57065" y1="688.69171" x2="324.04471" y2="700.04755"><stop offset="0" stop-color="#AF740A"/><stop offset="1" stop-color="#C79225"/></linearGradient></defs><path fill="url(#gradient_2)" d="M288.173 703.463C291.596 701.795 295.044 700.178 298.515 698.613C330.368 684.501 368.863 680.937 401.734 693.571C397.394 694.122 389.389 690.147 384.011 689.274C373.147 687.508 363.108 686.476 352.053 686.755C348.907 689.089 332.427 695.373 326.821 698.242C332.696 698.876 349.779 699.368 353.693 703.121C325.802 696.337 314.344 699.998 288.173 703.463Z"/><path fill="#F8DF79" d="M659.879 378.848C680.102 376.003 687.417 376.755 695.6 397.546C696.494 400.85 696.811 402.568 697.296 405.949L691.35 403.636C671.263 409.676 661.898 421.03 645.903 431.256C626.208 446.521 602.104 462.226 581.523 477.059C575.008 481.748 568.54 486.502 562.119 491.32C561.157 492.039 554.779 496.91 554.094 497.211C546.573 504.378 535.839 512.314 527.632 519.492C525.802 517.921 524.014 509.837 520.646 506.215C515.805 501.007 507.667 494.922 501.178 491.803C500.572 491.511 495.965 491.305 494.94 491.216L495.796 489.28C502.673 483.08 508.328 473.868 516.914 466.989C517.721 465.655 525.789 458.23 527.347 456.827C548.516 437.767 579.917 413.306 605.51 400.777C607.735 399.127 613.053 396.548 615.701 395.161C630.314 387.507 643.628 382.245 659.879 378.848Z"/><defs><linearGradient id="gradient_3" gradientUnits="userSpaceOnUse" x1="669.10541" y1="382.58447" x2="650.41357" y2="411.82169"><stop offset="0" stop-color="#C18B21"/><stop offset="1" stop-color="#E7BE4C"/></linearGradient></defs><path fill="url(#gradient_3)" d="M659.879 378.848C680.102 376.003 687.417 376.755 695.6 397.546C696.494 400.85 696.811 402.568 697.296 405.949L691.35 403.636C671.263 409.676 661.898 421.03 645.903 431.256C647.165 427.411 657.342 421.189 661.055 418.621C651.2 414.388 629.919 399.755 622.014 392.73C617.869 395.332 610.269 400.557 605.51 400.777C607.735 399.127 613.053 396.548 615.701 395.161C630.314 387.507 643.628 382.245 659.879 378.848Z"/><path fill="#B37D17" d="M659.879 378.848C680.102 376.003 687.417 376.755 695.6 397.546C685.659 397.905 670.25 384.459 662.242 379.041C662.24 379.039 660.071 378.864 659.879 378.848Z"/><path fill="#ECB848" d="M495.796 489.28C502.673 483.08 508.328 473.868 516.914 466.989C515.61 470.866 507.806 478.167 504.534 480.828C519.863 484.879 528.457 488.998 537.323 503.222C537.995 504.301 538.451 505.594 538.853 506.808C541.358 507.422 548.852 498.472 554.094 497.211C546.573 504.378 535.839 512.314 527.632 519.492C525.802 517.921 524.014 509.837 520.646 506.215C515.805 501.007 507.667 494.922 501.178 491.803C500.572 491.511 495.965 491.305 494.94 491.216L495.796 489.28Z"/><defs><linearGradient id="gradient_4" gradientUnits="userSpaceOnUse" x1="484.01913" y1="479.53091" x2="522.81323" y2="348.94846"><stop offset="0" stop-color="#EAC353"/><stop offset="1" stop-color="#FDF396"/></linearGradient></defs><path fill="url(#gradient_4)" d="M523.445 363.207C525.108 361.76 531.467 358.211 533.643 357.032C551.646 347.25 570.88 339.93 590.83 335.266C594.527 337.108 592.626 333.818 596.281 338.616C596.935 339.473 602.465 342.551 603.849 343.669C607.256 346.421 616.993 351.181 619.014 354.619C603.411 361.805 588.666 369.571 574.387 379.227C571.903 380.907 561.887 388.573 560.03 389.191C551.291 396.968 540.01 404.944 531.536 413.103C522.592 421.714 511.649 432.674 503.608 442.012C498.691 447.665 494.079 453.576 489.79 459.72C487.999 462.292 483.501 469.323 481.804 471.345C478.984 472.552 478.712 474.708 476.8 477.154L476.05 477.185C473.814 475.885 469.417 472.051 467.957 469.961C465.659 466.67 470.765 463.243 471.327 459.068C472.057 457.759 471.965 458.25 472.149 456.857L470.411 458.531C467.187 460.092 467.176 462.209 465.024 463.115C463.863 462.731 463.868 462.752 462.864 462.067C459.986 457.748 442.885 442.369 438.599 441.393C438.686 437.074 444.466 434.616 445.341 429.604C455.139 413.726 506.056 371.079 523.445 363.207Z"/><defs><linearGradient id="gradient_5" gradientUnits="userSpaceOnUse" x1="593.68103" y1="335.2706" x2="565.89838" y2="373.89981"><stop offset="0" stop-color="#BE8E27"/><stop offset="1" stop-color="#F5C450"/></linearGradient></defs><path fill="url(#gradient_5)" d="M523.445 363.207C525.108 361.76 531.467 358.211 533.643 357.032C551.646 347.25 570.88 339.93 590.83 335.266C594.527 337.108 592.626 333.818 596.281 338.616C596.935 339.473 602.465 342.551 603.849 343.669C607.256 346.421 616.993 351.181 619.014 354.619C603.411 361.805 588.666 369.571 574.387 379.227C571.903 380.907 561.887 388.573 560.03 389.191C559.864 388.644 559.938 389.015 560.045 388.056C562.42 386.195 571.237 380.781 571.573 378.83C570.973 377.9 562.964 373.402 561.44 372.479C553.137 367.453 546.931 362.165 541.199 354.293C538.013 355.995 525.69 363.344 523.445 363.207Z"/><defs><linearGradient id="gradient_6" gradientUnits="userSpaceOnUse" x1="353.6651" y1="488.9061" x2="426.05447" y2="449.77316"><stop offset="0" stop-color="#AC700A"/><stop offset="1" stop-color="#D8A83A"/></linearGradient></defs><path fill="url(#gradient_6)" d="M400.852 402.471C402.191 400.86 412.698 392.391 414.499 391.238L415.017 391.754C419.218 395.877 424.403 398.434 428.559 403.88C431.499 407.734 434.11 416.945 437.179 418.609C431.907 424.656 426.856 430.786 421.666 436.891C420.918 438.304 416.15 444.694 414.94 446.401C411.453 451.257 408.295 456.342 405.488 461.621C392.221 486.134 388.327 502.742 396.122 529.002C383.956 522.898 369.23 513.151 360.841 502.611C334.565 469.598 374.736 422.453 400.852 402.471Z"/><path fill="#ECB848" d="M400.852 402.471C402.191 400.86 412.698 392.391 414.499 391.238L415.017 391.754C419.218 395.877 424.403 398.434 428.559 403.88C431.499 407.734 434.11 416.945 437.179 418.609C431.907 424.656 426.856 430.786 421.666 436.891C420.014 436.711 419.971 437.337 418.873 438.572C416.775 437.272 412.121 423.988 410.577 421.259C408.302 417.24 405.552 413.577 403.445 409.33C402.782 407.994 401.222 406.771 400.024 404.361L400.852 402.471Z"/><path fill="#ECB848" d="M683.042 414.659C692.11 417.755 699.934 458.824 695.456 468.468C694.108 471.371 692.321 482.143 691.889 485.602L691.822 486.191C698.508 493.462 703.762 491.459 711.403 487.222C705.051 496.402 701.515 498.727 690.2 495.294C692.217 504.601 695.914 513.707 702.326 520.782C716.048 535.92 713.6 543.262 695.781 553.172C697.466 555.162 699.128 557.17 700.768 559.197C706.048 565.839 703.646 569.081 697.894 573.532C703.959 584.307 697.892 586.488 689.065 591.613C688.537 598.182 687.695 610.215 682.883 614.978C668.264 629.452 636.88 610.731 620.708 606.301C613.814 604.413 611.52 603.758 604.595 604.081C594.237 609.656 590.633 625.696 590.117 636.365C588.161 676.785 613.731 696.623 651.745 700.957C665.655 703.24 680.139 702.707 693.807 706.311C727.553 715.211 737.002 741.965 735.457 773.116C734.918 777.813 734.525 780.732 733.47 785.309C730.716 768.868 725.233 752.752 715.273 739.327C684.994 698.509 633.257 721.012 597.064 688.165C584.689 676.933 579.471 660.646 578.333 644.228C577.457 631.595 581.502 609.009 590.483 600.002C608.179 582.258 647.584 614.938 668.494 613.798C684.64 613.348 680.372 600.095 684.748 589.662C686.369 585.798 692.273 584.843 692.187 579.261C690.664 576.278 687.724 574.972 684.8 573.176C689.088 570.253 693.144 567.003 696.931 563.455C693.896 559.584 690.936 555.548 688.581 551.23C693.092 549.008 705.522 542.724 703.298 537.18C698.768 525.892 686.467 515.579 683.856 503.033C681.51 491.759 686.583 478.147 688.585 466.999C689.784 460.216 690.117 453.309 689.577 446.443C688.711 435.091 685.934 429.043 681.846 418.823C681.17 417.133 682.155 415.996 683.042 414.659Z"/><defs><linearGradient id="gradient_7" gradientUnits="userSpaceOnUse" x1="488.60464" y1="317.57629" x2="417.78918" y2="348.64587"><stop offset="0" stop-color="#E7C960"/><stop offset="1" stop-color="#FFFE9B"/></linearGradient></defs><path fill="url(#gradient_7)" d="M413.178 325.403C414.607 324.698 422.088 322.329 423.892 321.758C444.38 315.281 464.844 312.163 486.103 309.555C483.629 316.485 489.934 324.86 492.641 330.86C494.254 334.435 495.386 335.586 493.824 339.184C486.493 342.013 479.18 344.89 471.906 347.86C460.19 352.643 449.303 359.153 437.972 364.734C430.54 369.506 422.579 373.838 415.327 378.566C408.059 383.305 399.622 389.946 392.716 395.245C387.168 393.491 388.257 388.835 385.895 384.544C381.478 376.521 375.561 353.839 370.118 347.947C368.292 347.843 366.112 349.65 364.16 350.786L363.168 350.418C374.827 341.526 399.317 330.16 413.178 325.403Z"/><defs><linearGradient id="gradient_8" gradientUnits="userSpaceOnUse" x1="378.61032" y1="369.80643" x2="420.45474" y2="352.71649"><stop offset="0" stop-color="#E6B441"/><stop offset="1" stop-color="#FEDE72"/></linearGradient></defs><path fill="url(#gradient_8)" d="M363.168 350.418C374.827 341.526 399.317 330.16 413.178 325.403C411.475 326.996 411.024 326.853 410.655 328.679C416.785 340.637 424.377 357.39 426.063 370.612C429.91 368.142 433.455 365.374 437.972 364.734C430.54 369.506 422.579 373.838 415.327 378.566C408.059 383.305 399.622 389.946 392.716 395.245C387.168 393.491 388.257 388.835 385.895 384.544C381.478 376.521 375.561 353.839 370.118 347.947C368.292 347.843 366.112 349.65 364.16 350.786L363.168 350.418Z"/><defs><linearGradient id="gradient_9" gradientUnits="userSpaceOnUse" x1="557.33099" y1="277.9592" x2="468.36786" y2="187.52422"><stop offset="0" stop-color="#E7AD3A"/><stop offset="1" stop-color="#FFD161"/></linearGradient></defs><path fill="url(#gradient_9)" d="M518.069 151.606C521.256 151.488 524.84 151.543 528.061 151.52L528.054 239.079C528.051 253.313 527.982 267.628 528.162 281.856C528.323 294.57 537.218 290.071 541.212 295.63L541.032 296.625C539.742 297.185 526.345 296.785 524.953 296.597C517.198 295.549 485.89 298.103 480.12 296.508C481.963 291.736 487.866 293.58 491.688 289.698C493.794 287.605 494.711 283.144 494.836 280.194C496.057 251.414 495.367 222.336 495.387 193.526C495.398 178.76 485.848 182.125 476.077 184.73C475.136 184.981 474.567 184.201 474.027 183.652C473.948 183.046 473.684 181.505 474.039 181.25C477.642 178.673 488.023 171.999 491.345 169.935C499.823 164.666 509.797 155.656 518.069 151.606Z"/><defs><linearGradient id="gradient_10" gradientUnits="userSpaceOnUse" x1="655.5741" y1="341.67596" x2="609.776" y2="262.63193"><stop offset="0" stop-color="#A46904"/><stop offset="1" stop-color="#C7962F"/></linearGradient></defs><path fill="url(#gradient_10)" d="M602.377 234.974C604.138 249.211 603.681 256.719 607.861 271.133C608.554 272.889 609.264 274.638 609.993 276.38C622.242 303.931 646.698 300.152 670.553 290.035C679.199 286.368 685.604 281.533 693.516 276.898C688.774 292.859 682.188 308.311 677.883 324.442C677.142 327.218 676.228 330.371 675.263 333.073C638.072 311.833 599.721 303.683 557.802 298.221C556.68 296.864 555.228 295.21 554.264 293.775L551.403 289.291C548.543 284.56 545.723 280.285 542.66 275.698C572.513 270.627 584.335 258.669 602.377 234.974Z"/><defs><linearGradient id="gradient_11" gradientUnits="userSpaceOnUse" x1="580.29523" y1="278.62195" x2="569.80341" y2="247.52568"><stop offset="0" stop-color="#D8AB40"/><stop offset="1" stop-color="#FFDF7A"/></linearGradient></defs><path fill="url(#gradient_11)" d="M602.377 234.974C604.138 249.211 603.681 256.719 607.861 271.133C608.554 272.889 609.264 274.638 609.993 276.38C591.588 283.152 572.926 285.643 554.264 293.775L551.403 289.291C548.543 284.56 545.723 280.285 542.66 275.698C572.513 270.627 584.335 258.669 602.377 234.974Z"/><path fill="#ECB848" d="M551.403 289.291C554.638 287.174 560.653 285.284 564.401 283.97C577.88 279.243 591.477 274.803 605.021 270.275C605.494 270.377 605.968 270.479 606.441 270.581L607.237 271.957L607.861 271.133C608.554 272.889 609.264 274.638 609.993 276.38C591.588 283.152 572.926 285.643 554.264 293.775L551.403 289.291Z"/><defs><linearGradient id="gradient_12" gradientUnits="userSpaceOnUse" x1="320.10574" y1="418.58112" x2="388.76401" y2="387.92355"><stop offset="0" stop-color="#AC710E"/><stop offset="1" stop-color="#E2B13F"/></linearGradient></defs><path fill="url(#gradient_12)" d="M363.168 350.418L364.16 350.786C366.112 349.65 368.292 347.843 370.118 347.947C375.561 353.839 381.478 376.521 385.895 384.544C388.257 388.835 387.168 393.491 392.716 395.245C367.615 414.911 352.757 431.414 341.612 461.577C340.121 459.481 338.652 457.37 337.205 455.244C327.315 440.62 318.986 420.666 322.641 402.758C326.869 382.049 346.095 361.769 363.168 350.418Z"/><path fill="#F8DF79" d="M415.024 234.449C426.62 251.11 429.819 255.568 447.026 266.645C458.444 271.776 462.722 273.212 475.173 275.371C470.609 282.977 466.557 289.249 463.204 297.471C462.585 298.628 462.138 300.067 460.97 300.335C453.376 302.076 445.167 303.735 437.665 305.609C423.13 309.331 408.877 314.078 395.012 319.813C387.932 323.228 380.905 326.751 373.932 330.382C371.102 325.059 373.962 319.301 372.42 313.296C371.005 307.782 366.383 302.197 366.622 296.706C370.96 297.103 374.283 297.364 378.621 297.391C383.067 296.692 384.715 296.833 389.032 295.1C412.381 285.723 413.986 255.771 415.024 234.449Z"/><path fill="#ECB848" d="M447.026 266.645C458.444 271.776 462.722 273.212 475.173 275.371C470.609 282.977 466.557 289.249 463.204 297.471C461.738 293.349 456.587 289.586 454.952 285.417C451.87 277.556 452.346 273.634 447.026 266.645Z"/><path fill="#ECB848" d="M366.622 296.706C370.96 297.103 374.283 297.364 378.621 297.391C376.869 298.242 375.958 298.355 374.971 299.792C375.898 304.164 379.319 308.912 380.735 312.97C381.721 315.796 380.807 319.368 382.21 323.379C384.484 324.389 390.302 319.317 395.012 319.813C387.932 323.228 380.905 326.751 373.932 330.382C371.102 325.059 373.962 319.301 372.42 313.296C371.005 307.782 366.383 302.197 366.622 296.706Z"/><defs><linearGradient id="gradient_13" gradientUnits="userSpaceOnUse" x1="407.14413" y1="523.8645" x2="471.2467" y2="482.03305"><stop offset="0" stop-color="#AB710E"/><stop offset="1" stop-color="#D9A937"/></linearGradient></defs><path fill="url(#gradient_13)" d="M445.341 429.604C444.466 434.616 438.686 437.074 438.599 441.393C442.885 442.369 459.986 457.748 462.864 462.067C463.868 462.752 463.863 462.731 465.024 463.115C467.176 462.209 467.187 460.092 470.411 458.531C468.286 461.54 464.605 466.622 462.954 469.849L462.626 469.958C460.969 473.427 457.29 478.852 455.266 482.691C444.842 502.466 436.996 524.727 439.785 547.382C440.591 553.925 442.558 560.03 444.386 566.266C438.721 562.434 433.132 558.331 428.007 553.801C388.81 519.156 417.036 461.116 445.341 429.604Z"/><path fill="#ECB848" d="M462.626 469.958C461.516 465.543 454.047 457.711 453.117 453.931C456.336 455.475 459.102 460.302 462.864 462.067C463.868 462.752 463.863 462.731 465.024 463.115C467.176 462.209 467.187 460.092 470.411 458.531C468.286 461.54 464.605 466.622 462.954 469.849L462.626 469.958Z"/><defs><linearGradient id="gradient_14" gradientUnits="userSpaceOnUse" x1="536.1098" y1="778.82373" x2="509.72278" y2="689.86969"><stop offset="0" stop-color="#E7BC51"/><stop offset="1" stop-color="#FFFFA8"/></linearGradient></defs><path fill="url(#gradient_14)" d="M471.629 719.11L471.669 718.156C469.379 715.71 466.734 714.707 464.077 712.202C464.418 710.521 483.884 698.069 484.489 698.161C488.608 698.787 495.838 705.376 500.439 705.84C503.75 707.472 510.536 712.119 513.87 714.28C526.712 722.605 539.758 732.466 552.369 740.996C555.687 743.24 579.932 759.589 580.467 760.209C581.841 762.036 583.728 762.991 584.697 764.316C584.365 764.379 584.028 764.417 583.702 764.503C579.056 765.736 544.848 776.662 543.46 775.861C542.9 775.538 542.417 775.167 541.897 774.788L540.939 774.917C537.369 772.907 519.753 758.162 515.982 755.065L471.629 719.11Z"/><path fill="#ECB848" d="M558.284 754.722C561.565 754.295 567.771 754.541 570.844 755.889C568.078 756.29 561.366 755.16 558.284 754.722Z"/><defs><linearGradient id="gradient_15" gradientUnits="userSpaceOnUse" x1="451.56088" y1="569.40247" x2="523.5423" y2="510.73257"><stop offset="0" stop-color="#B07510"/><stop offset="1" stop-color="#DDAC3C"/></linearGradient></defs><path fill="url(#gradient_15)" d="M477.529 602.573C474.389 596.436 471.252 589.38 469.164 582.852C459.201 551.691 471.747 516.312 486.571 488.424C488.408 489.962 490.229 491.166 492.753 491.022C494.717 490.909 494.573 489.88 495.796 489.28L494.94 491.216C495.965 491.305 500.572 491.511 501.178 491.803C507.667 494.922 515.805 501.007 520.646 506.215C524.014 509.837 525.802 517.921 527.632 519.492C503.765 542.472 482.139 568.344 477.529 602.573Z"/><defs><linearGradient id="gradient_16" gradientUnits="userSpaceOnUse" x1="598.42792" y1="809.27429" x2="584.80151" y2="763.68475"><stop offset="0" stop-color="#C58A1D"/><stop offset="1" stop-color="#E2B74B"/></linearGradient></defs><path fill="url(#gradient_16)" d="M580.467 760.209C602.766 772.795 613.318 779.876 638.484 788.641C627.651 796.341 603.753 802.841 596.266 811.618C587.262 807.278 546.076 781.025 540.939 774.917L541.897 774.788C542.417 775.167 542.9 775.538 543.46 775.861C544.848 776.662 579.056 765.736 583.702 764.503C584.028 764.417 584.365 764.379 584.697 764.316C583.728 762.991 581.841 762.036 580.467 760.209Z"/><defs><linearGradient id="gradient_17" gradientUnits="userSpaceOnUse" x1="552.15326" y1="433.60876" x2="539.64624" y2="419.90802"><stop offset="0" stop-color="#EEC157"/><stop offset="1" stop-color="#FFF699"/></linearGradient></defs><path fill="url(#gradient_17)" d="M606.817 371.738L612.175 376.941C613.479 378.275 614.675 379.181 615.172 380.932C614.161 384.29 611.148 382.944 609.075 386.822C607.995 387.753 595.366 395.738 594.071 396.307C568.086 413.537 546.278 430.265 524.758 453.193C520.028 458.195 515.456 463.345 511.049 468.635C509.213 470.869 501.471 481.507 499.881 482.697C498.74 484.344 496.457 487.466 495.796 489.28C494.573 489.88 494.717 490.909 492.753 491.022C490.229 491.166 488.408 489.962 486.571 488.424C490.232 481.22 495.966 471.911 500.791 465.555C516.081 442.309 546.792 409.079 570.104 393.834C572.999 393.621 583.836 385.476 587.111 383.303C593.473 379.106 600.051 375.245 606.817 371.738Z"/><path fill="#ECB848" d="M612.175 376.941C613.479 378.275 614.675 379.181 615.172 380.932C614.161 384.29 611.148 382.944 609.075 386.822C607.995 387.753 595.366 395.738 594.071 396.307C593.018 396.376 593.297 396.407 592.25 396.228C593.609 393.57 608.662 380.291 612.175 376.941Z"/><path fill="#ECB848" d="M500.791 465.555C500.008 471.482 489.126 482.649 490.535 486.066C492.831 486.549 497.27 484.11 499.08 482.745L499.881 482.697C498.74 484.344 496.457 487.466 495.796 489.28C494.573 489.88 494.717 490.909 492.753 491.022C490.229 491.166 488.408 489.962 486.571 488.424C490.232 481.22 495.966 471.911 500.791 465.555Z"/><path fill="#B37D17" d="M638.484 788.641C660.813 795.469 677.757 798.66 700.696 792.261C690.869 806.301 669.433 818.61 652.513 821.315C633.06 824.424 613.631 820.539 596.266 811.618C603.753 802.841 627.651 796.341 638.484 788.641Z"/><defs><linearGradient id="gradient_18" gradientUnits="userSpaceOnUse" x1="334.064" y1="313.94916" x2="367.3981" y2="301.91086"><stop offset="0" stop-color="#BF7F15"/><stop offset="1" stop-color="#EAB53C"/></linearGradient></defs><path fill="url(#gradient_18)" d="M345.842 349.26C340.525 330.429 336.823 311.298 329.622 292.94C328.268 289.49 324.889 282.504 324.812 279.22L325.6 278.672C328.89 279.064 341.607 288.158 347.519 290.503C355.803 293.79 357.141 294.839 366.622 296.706C366.383 302.197 371.005 307.782 372.42 313.296C373.962 319.301 371.102 325.059 373.932 330.382C362.817 336.969 356.06 341.463 345.842 349.26Z"/><defs><linearGradient id="gradient_19" gradientUnits="userSpaceOnUse" x1="417.92441" y1="656.87622" x2="456.26822" y2="716.14868"><stop offset="0" stop-color="#E1AB38"/><stop offset="1" stop-color="#F8E582"/></linearGradient></defs><path fill="url(#gradient_19)" d="M399.535 670.942C429.83 671.502 457.531 682.401 484.035 696.352C487.642 698.25 497.344 703.456 500.439 705.84C495.838 705.376 488.608 698.787 484.489 698.161C483.884 698.069 464.418 710.521 464.077 712.202C466.734 714.707 469.379 715.71 471.669 718.156L471.629 719.11C468.302 717.346 457.552 709.071 453.291 706.382C432.771 693.43 415.602 684.531 392.192 678.458L390.449 676.765C390.017 671.95 395.888 671.163 399.535 670.942Z"/><defs><linearGradient id="gradient_20" gradientUnits="userSpaceOnUse" x1="426.00705" y1="404.09052" x2="465.56689" y2="372.64795"><stop offset="0" stop-color="#F3C552"/><stop offset="1" stop-color="#FFF695"/></linearGradient></defs><path fill="url(#gradient_20)" d="M414.499 391.238C426.758 381.674 445.099 370.741 458.578 363.137L459.363 363.789C460.224 368.606 468.502 377.993 471.804 381.958C471.922 382.1 474.433 382.503 475.009 382.721C461.687 393.91 449.053 405.894 437.179 418.609C434.11 416.945 431.499 407.734 428.559 403.88C424.403 398.434 419.218 395.877 415.017 391.754L414.499 391.238Z"/><defs><linearGradient id="gradient_21" gradientUnits="userSpaceOnUse" x1="544.18793" y1="336.20068" x2="465.20773" y2="372.2251"><stop offset="0" stop-color="#E8B952"/><stop offset="1" stop-color="#FFED88"/></linearGradient></defs><path fill="url(#gradient_21)" d="M535.772 333.049C538.184 333.702 540.064 333.195 542.499 332.462C543.287 334.5 544.151 335.522 543.528 337.15L543.108 337.442C542.014 338.217 541.437 338.466 540.874 339.677C522.053 349.232 504.154 360.504 487.406 373.349C484.246 375.731 478.632 379.705 475.809 382.241L475.009 382.721C474.433 382.503 471.922 382.1 471.804 381.958C468.502 377.993 460.224 368.606 459.363 363.789L458.578 363.137C476.093 353.315 516.002 335.142 535.772 333.049Z"/><path fill="#F8DF79" d="M459.363 363.789C465.84 365.538 467.684 366.701 471.63 372.983C472.866 374.951 475.204 380.069 475.809 382.241L475.009 382.721C474.433 382.503 471.922 382.1 471.804 381.958C468.502 377.993 460.224 368.606 459.363 363.789Z"/><defs><linearGradient id="gradient_22" gradientUnits="userSpaceOnUse" x1="547.22968" y1="304.69406" x2="490.29126" y2="328.33524"><stop offset="0" stop-color="#D6A134"/><stop offset="1" stop-color="#E8CB62"/></linearGradient></defs><path fill="url(#gradient_22)" d="M486.103 309.555C506.196 307.416 528.548 306.517 548.727 308.068C548.798 314.268 551.935 317.485 555.622 322.357C533.389 326.667 515.262 331.82 493.824 339.184C495.386 335.586 494.254 334.435 492.641 330.86C489.934 324.86 483.629 316.485 486.103 309.555Z"/><defs><linearGradient id="gradient_23" gradientUnits="userSpaceOnUse" x1="662.68121" y1="342.21231" x2="634.38361" y2="391.30774"><stop offset="0" stop-color="#AE7311"/><stop offset="1" stop-color="#DCB042"/></linearGradient></defs><path fill="url(#gradient_23)" d="M570.104 393.834C572.3 391.736 579.712 386.588 582.54 384.715C604.54 370.358 629.553 357.098 655.615 352.348C670.213 349.688 688.244 347.236 691.257 366.238C670.537 353.345 628.693 376.749 609.075 386.822C611.148 382.944 614.161 384.29 615.172 380.932C614.675 379.181 613.479 378.275 612.175 376.941L606.817 371.738C600.051 375.245 593.473 379.106 587.111 383.303C583.836 385.476 572.999 393.621 570.104 393.834Z"/><defs><linearGradient id="gradient_24" gradientUnits="userSpaceOnUse" x1="534.97748" y1="552.0799" x2="577.48883" y2="551.04291"><stop offset="0" stop-color="#E0A73D"/><stop offset="1" stop-color="#FFD565"/></linearGradient></defs><path fill="url(#gradient_24)" d="M556.036 514.524C561.234 518.744 565.208 521.88 569.419 527.524C581.976 544.357 583.872 572.821 561.638 582.703C551.112 587.382 541.477 581.493 534.22 573.756C535.55 569.868 534.264 568.621 535.484 565.179C536.864 564.088 536.368 564.421 538.495 564.358C546.862 571.051 558.529 571.364 564.471 561.983C575.268 544.937 565.204 528.181 556.036 514.524Z"/><path fill="#C9912A" d="M471.327 459.068C470.765 463.243 465.659 466.67 467.957 469.961C469.417 472.051 473.814 475.885 476.05 477.185L476.8 477.154C478.712 474.708 478.984 472.552 481.804 471.345C480.752 473.107 473.705 485.066 472.83 485.948C461.388 509.573 457.083 521.571 452.173 547.998C451.308 545.23 450.471 542.487 449.825 539.657C445.016 517.595 449.11 494.526 461.219 475.466C461.515 474.609 463.161 471.602 463.665 470.63C466.28 466.395 468.358 463.111 471.327 459.068Z"/><path fill="#ECB848" d="M471.327 459.068C470.765 463.243 465.659 466.67 467.957 469.961C469.417 472.051 473.814 475.885 476.05 477.185L476.8 477.154C478.712 474.708 478.984 472.552 481.804 471.345C480.752 473.107 473.705 485.066 472.83 485.948C469.818 487.189 468.06 491.397 466.445 494.377C462.38 491.995 460.386 490.079 457.045 486.819C458.833 483.283 461.372 479.313 461.219 475.466C461.515 474.609 463.161 471.602 463.665 470.63C466.28 466.395 468.358 463.111 471.327 459.068Z"/><defs><linearGradient id="gradient_25" gradientUnits="userSpaceOnUse" x1="638.44897" y1="322.96951" x2="617.32532" y2="353.06445"><stop offset="0" stop-color="#9E6202"/><stop offset="1" stop-color="#C08E26"/></linearGradient></defs><path fill="url(#gradient_25)" d="M590.83 335.266C615.776 330.032 641.678 328.797 665.227 340.312C648.013 343.939 635.067 347.548 619.014 354.619C616.993 351.181 607.256 346.421 603.849 343.669C602.465 342.551 596.935 339.473 596.281 338.616C592.626 333.818 594.527 337.108 590.83 335.266Z"/><path fill="#C9912A" d="M548.727 308.068C573.182 310.125 592.546 312.46 616.664 318.982C594.44 317.824 577.809 319.004 555.622 322.357C551.935 317.485 548.798 314.268 548.727 308.068Z"/><defs><linearGradient id="gradient_26" gradientUnits="userSpaceOnUse" x1="479.88849" y1="628.84961" x2="466.46933" y2="625.77399"><stop offset="0" stop-color="#FFC757"/><stop offset="1" stop-color="#DA9928"/></linearGradient></defs><path fill="url(#gradient_26)" d="M487.755 584.593C486.148 609.506 481.648 640.86 465.401 660.624C463.358 661.281 463.733 661.505 461.985 661.049C460.487 659.35 460.141 655.86 459.529 653.327C472.445 639.617 478.485 622.222 483.197 604.251C484.831 598.017 485.949 590.651 487.755 584.593Z"/><defs><linearGradient id="gradient_27" gradientUnits="userSpaceOnUse" x1="306.98386" y1="265.67047" x2="322.37109" y2="265.37125"><stop offset="0" stop-color="#B17314"/><stop offset="1" stop-color="#D69D31"/></linearGradient></defs><path fill="url(#gradient_27)" d="M313.933 255.338C318.294 254.203 322.895 255.962 325.386 259.717C327.877 263.473 327.708 268.396 324.965 271.972C322.156 275.633 317.294 277.045 312.961 275.457C308.628 273.869 305.83 269.65 306.053 265.04C306.276 260.431 309.468 256.501 313.933 255.338Z"/><path fill="#F8DF79" d="M313.933 255.338C318.294 254.203 322.895 255.962 325.386 259.717C327.877 263.473 327.708 268.396 324.965 271.972C324.39 271.731 324.092 271.594 323.633 271.155C318.276 266.016 314.424 262.957 313.933 255.338Z"/><path fill="#ECB848" d="M690.944 262.89C692.167 258.489 696.118 255.401 700.684 255.276C705.25 255.152 709.363 258.02 710.824 262.348C712.286 266.676 710.753 271.45 707.046 274.119C703.462 276.699 698.639 276.736 695.017 274.21C691.394 271.683 689.761 267.145 690.944 262.89Z"/><path fill="#B37D17" d="M690.944 262.89C694.978 262.874 700.368 262.4 703.777 264.304C705.801 266.566 704.503 271.591 707.046 274.119C703.462 276.699 698.639 276.736 695.017 274.21C691.394 271.683 689.761 267.145 690.944 262.89Z"/><path fill="#F8DF79" d="M409.517 211.522C413.357 211.379 415.857 211.552 418.805 214.431C420.815 216.374 421.948 219.051 421.945 221.846C421.942 226.225 419.623 228.997 416.087 231.185C413.268 232.051 410.972 232.273 408.148 231.196C405.351 230.15 403.14 227.951 402.079 225.16C401.08 222.553 401.21 219.649 402.437 217.142C404.028 213.861 406.299 212.722 409.517 211.522Z"/><path fill="#ECB848" d="M409.517 211.522C413.357 211.379 415.857 211.552 418.805 214.431C420.815 216.374 421.948 219.051 421.945 221.846C421.942 226.225 419.623 228.997 416.087 231.185C415.103 228.061 411.211 213.043 409.517 211.522Z"/><path fill="#ECB848" d="M603.834 211.644C609.277 210.429 614.68 213.836 615.93 219.271C617.18 224.706 613.809 230.131 608.382 231.416C602.905 232.714 597.418 229.305 596.157 223.819C594.895 218.333 598.34 212.869 603.834 211.644Z"/><path fill="#C9912A" d="M526.9 527.553C526.885 543.549 527.686 552.264 538.495 564.358C536.368 564.421 536.864 564.088 535.484 565.179C534.264 568.621 535.55 569.868 534.22 573.756C522.218 560.56 522.095 543.811 526.9 527.553Z"/><path fill="#C9912A" d="M459.529 653.327C460.141 655.86 460.487 659.35 461.985 661.049C463.733 661.505 463.358 661.281 465.401 660.624C461.192 665.948 458.617 667.737 453.098 671.917C447.821 670.252 443.193 668.717 437.762 667.588C446.689 662.873 452.061 660.227 459.529 653.327Z"/><path fill="#C9912A" d="M354.745 675.032C364.277 671.5 389.186 669.625 399.535 670.942C395.888 671.163 390.017 671.95 390.449 676.765L392.192 678.458C376.155 675.099 371.098 674.301 354.745 675.032Z"/><path fill="#ECB848" d="M535.772 333.049C543.531 331.075 557.454 329.201 565.646 329.041C557.13 332.479 549.256 335.951 540.874 339.677C541.437 338.466 542.014 338.217 543.108 337.442L543.528 337.15C544.151 335.522 543.287 334.5 542.499 332.462C540.064 333.195 538.184 333.702 535.772 333.049Z"/><path fill="#120E06" fill-opacity="0.21568628" d="M470.411 458.531L472.149 456.857C471.965 458.25 472.057 457.759 471.327 459.068C468.358 463.111 466.28 466.395 463.665 470.63L462.954 469.849C464.605 466.622 468.286 461.54 470.411 458.531Z"/></svg>