<svg xmlns="http://www.w3.org/2000/svg" width="880" height="880" viewBox="0 0 880 880"><defs><linearGradient id="a" x1="300.711" x2="224.871" y1="493.971" y2="387.078" gradientUnits="userSpaceOnUse"><stop offset="0" stop-color="#eb9a24"/><stop offset="1" stop-color="#ffdd53"/></linearGradient></defs><path fill="url(#a)" d="m232.268 319.424 72.057.058-.026 79.79c-.001 10.894.568 29.411-.181 39.48.373 8.148.329 25.697-.074 33.794l-1.257.288c-3.289 48.095-45.038 80.94-84.607 101.367-.374-9.635-.045-20.658-.131-30.422-.058-6.489-.249-18.197.338-24.316-.487-10.796-.149-24.285-.161-35.236l.117-77.851c-25.037 7.195-42.412 10.637-68.415 10.692l.005-44.364c34.907-7.156 61.724-23.96 82.335-53.28" transform="scale(.85938)"/><defs><linearGradient id="b" x1="257.995" x2="185.741" y1="394.769" y2="332.866" gradientUnits="userSpaceOnUse"><stop offset="0" stop-color="#f6b22e"/><stop offset="1" stop-color="#ffdf5f"/></linearGradient></defs><path fill="url(#b)" d="m232.268 319.424 72.057.058-.026 79.79c-.001 10.894.568 29.411-.181 39.48-.711-5.646-.268-27.242-.269-33.909q.132-37.543-.122-75.085c-2.796 5.842-4.89 11.962-7.704 17.798-15.761 32.694-45.456 47.51-77.68 58.82-25.037 7.195-42.412 10.637-68.415 10.692l.005-44.364c34.907-7.156 61.724-23.96 82.335-53.28" transform="scale(.85938)"/><path fill="#c07138" d="M187.852 468.306c27.788-8.288 57.256-30.137 69.093-56.53.565-1.26 2.138-4.833 3.263-5.434-2.827 41.331-38.705 69.557-72.71 87.112-.321-8.28-.038-17.753-.112-26.144-.05-5.576-.214-15.638.29-20.897.565 4.287.206 17.122.176 21.893"/><path fill="#603646" d="m260.208 406.342 1.08-.248q.176 7.888-.045 15.775c.85 14.119.542 28.905.5 43.067-.06 19.93-.282 34.702 8.328 53.173 7.707 12.797 14.907 20.484 28.998 26.08 5.767 1.771 9.036 2.615 15.033 3.403q3.856.353 7.723.533c-10.917 42.938-62.527 40.641-96.781 32.927-15.09-4.337-33.801-8.043-49.551-9.163-7.87-.56-14.413.796-22.582-.56-15.591 6.352-22.552 9.963-39.367 15.143-1.309-8.516-.843-23.269.429-31.758 3.8-30.338 30.472-41.342 55.272-51.843 4.74-2.008 14.096-6.274 18.253-9.417 34.005-17.555 69.883-45.78 72.71-87.112"/><defs><linearGradient id="c" x1="257.6" x2="183.152" y1="602.733" y2="556.06" gradientUnits="userSpaceOnUse"><stop offset="0" stop-color="#ea9b28"/><stop offset="1" stop-color="#ffdf5c"/></linearGradient></defs><path fill="url(#c)" d="m302.787 472.834 1.257-.288q.205 9.179-.052 18.356l-.43 1.675c-2.215 3.556-4.182 8.679-5.436 12.715-2.494 8.029-10.589 16.659-13.511 23.754-9.114 22.127-15.568 47.08-24.798 69.045l.873 2.299c-18.223 23.204-38.896 39.058-63.975 54.217-6.066 3.666-13.288 6.894-18.782 10.212-18.143 7.392-26.243 11.593-45.809 17.621-1.523-9.909-.981-27.076.499-36.954 4.421-35.303 35.458-48.108 64.317-60.327 5.515-2.336 16.402-7.301 21.24-10.958 39.569-20.427 81.318-53.272 84.607-101.367" transform="scale(.85938)"/><path fill="#c07138" d="M225.044 581.052c-.295-.437-.56-.893-.678-1.416-2.407-10.59 39.187-51.1 45.705-61.527 7.707 12.797 14.907 20.484 28.998 26.08 5.767 1.771 9.036 2.615 15.033 3.403q3.856.353 7.723.533c-10.917 42.938-62.527 40.641-96.781 32.927"/><path fill="#e99a2b" d="M299.07 544.19c5.766 1.77 9.035 2.614 15.032 3.402-.169.238-9.792 7.897-10.55 8.395-5.979 3.938-13.871 7.494-20.615 10.082l-1.097-.5c5.127-6.05 10.836-10.602 15.858-16.605 1.442-1.724 1.707-2.625 1.371-4.774"/><path fill="#e99a2b" d="M282.937 566.069c-2.492.995-5.084 1.915-7.77 2.054l.18-.403.11.35.52-.06.694-.887-.09.02 5.259-1.575z"/><path fill="#e99a2b" d="M260.874 423.308c-.07 8.267-1.56 14.574-3.39 22.56-5.778 25.186-17.14 49.908-33.454 70.092l-.75-1.976c7.932-18.876 13.479-40.32 21.311-59.335 2.511-6.097 9.468-13.514 11.611-20.414 1.078-3.468 2.768-7.87 4.672-10.927"/><path fill="#f4f4f3" d="M668.578 366.516q7.902.021 15.802.143l.104 37.005c5.846-5.091 10.637-8.272 18.607-9.059a34.74 34.74 0 0 1 25.739 7.909c17.176 14.254 16.648 39.097 2.777 55.547a33.53 33.53 0 0 1-23.785 10.368c-10.058.2-17.174-3.433-24.273-10.228l.086 8.716c-4.511-.234-10.616-.054-15.244-.03.212-12.756-.107-26.276-.105-39.134zm39.685 86.344c11.783-2.043 19.68-13.252 17.636-25.036-2.043-11.783-13.252-19.679-25.036-17.636-11.783 2.043-19.68 13.252-17.637 25.036s13.253 19.68 25.037 17.636"/><path fill="#f4f4f3" d="M611.11 394.231c20.543-3.489 40.018 10.357 43.472 30.906 3.453 20.55-10.425 40.001-30.98 43.42-20.506 3.412-39.9-10.426-43.347-30.926-3.445-20.5 10.36-39.92 30.854-43.4m8.291 59.222c12.223-1.098 21.235-11.905 20.118-24.126-1.117-12.22-11.938-21.216-24.157-20.08-12.192 1.132-21.164 11.925-20.05 24.12s11.894 21.182 24.09 20.086"/><path fill="#f4f4f3" d="M368.823 368.59q8.299.1 16.596-.04c5.287 11.404 10.68 25.297 15.61 37.024a4748 4748 0 0 1 25.707 61.104q-8.972.047-17.942-.133c-3.135-5.411-8.012-17.966-9.985-23.951l-12.886-.01c-5.898.022-25.669.462-30.408-.607-3.568 7.55-6.816 16.613-10.491 24.623-5.793.118-11.852.038-17.667.05 8.694-22.26 19.13-44.291 27.976-66.555 4.052-10.197 8.727-21.64 13.49-31.506m-7.548 58.845 16.205.027 14.834-.03c-1.645-4.506-13.84-36.284-15.68-38.233a1865 1865 0 0 1-15.359 38.236"/><path fill="#f4f4f3" d="M528.755 395c17.572-2.186 33.955 5.783 38.763 23.635 1.73 6.425 1.467 11.913 1.436 18.485l-55.736-.093c6.887 20.822 26.544 21.614 41.387 9.237 3.86 3.112 7.146 5.834 10.827 9.163-11.774 14.388-37.215 17.003-52.231 6.863a37.27 37.27 0 0 1-15.53-23.824 39.95 39.95 0 0 1 6.721-29.815c6.33-8.926 13.974-11.945 24.363-13.651m-15.063 29.157c7.219.303 14.448.323 21.669.06l18.433-.059c-3.373-9.318-10.128-17.527-21.167-15.78-10.638 1.022-15.81 5.595-18.935 15.779"/><path fill="#f4f4f3" d="M455.247 394.948a176 176 0 0 1 5.172-.2c10.31-.173 17.55 2.86 24.936 9.987-3.811 2.913-6.69 6.163-10.006 9.62-4.318-3.788-8.506-5.66-14.404-5.681-3.313-.011-11.378 1.638-10.517 6.485 1.208 6.426 10.33 7.957 15.699 9.664 9.619 3.057 19.76 6.856 20.947 18.715a21.57 21.57 0 0 1-5.242 16.362c-5.626 6.415-13.041 7.733-21.004 8.388-12.178-.462-20.549-3.332-29.368-11.889 3.403-3.398 6.488-6.41 10.059-9.649 7.093 4.968 13.074 8.034 22.01 6.851 8.491-1.44 10.727-9.604 2.208-13.469-5.324-2.416-11.257-3.423-16.576-5.572-9.072-3.666-16.858-10.516-14.49-21.293 2.644-12.03 9.797-16.024 20.576-18.319"/><path fill="#f4f4f3" d="m754.955 396.091 15.964.073.073 70.498-16.045.024z"/><path fill="#f4f4f3" d="M760.256 367.566c5.069-1.441 10.348 1.496 11.794 6.564 1.448 5.067-1.485 10.348-6.55 11.8-5.074 1.455-10.365-1.482-11.814-6.557a9.55 9.55 0 0 1 6.57-11.807"/></svg>